<svg xmlns="http://www.w3.org/2000/svg" width="205" height="125" viewBox="0 0 205 125">
  <g fill="none" fill-rule="evenodd">
    <polygon fill="#96D2D5" points="157.926 60.892 173.617 60.892 173.617 45.198 157.926 45.198"/>
    <polygon fill="#EE9D3E" points="41.684 60.177 57.363 60.177 57.363 44.495 41.684 44.495"/>
    <path fill="#3D9E9D" d="M189.58,70.521 C185.04,70.521 181.341,66.824 181.341,62.273 C181.341,57.733 185.04,54.034 189.58,54.034 C194.125,54.034 197.828,57.733 197.828,62.273 C197.828,66.824 194.125,70.521 189.58,70.521"/>
    <path fill="#496E5A" d="M83.189,2.431 C78.644,2.431 74.947,6.128 74.947,10.673 C74.947,15.216 78.644,18.907 83.189,18.907 C87.739,18.907 91.428,15.216 91.428,10.673 C91.428,6.128 87.739,2.431 83.189,2.431"/>
    <path fill="#DDE58D" d="M65.519,38.183 C60.97,38.183 57.276,34.487 57.276,29.941 C57.276,25.403 60.97,21.699 65.519,21.699 C70.074,21.699 73.76,25.403 73.76,29.941 C73.76,34.487 70.074,38.183 65.519,38.183"/>
    <path fill="#27AB71" d="M127.682,2.431 C123.137,2.431 119.435,6.128 119.435,10.673 C119.435,15.216 123.137,18.907 127.682,18.907 C132.223,18.907 135.917,15.216 135.917,10.673 C135.917,6.128 132.223,2.431 127.682,2.431"/>
    <path fill="#DDE58D" d="M146.125,38.211 C141.582,38.211 137.883,34.51 137.883,29.967 C137.883,25.429 141.582,21.732 146.125,21.732 C150.67,21.732 154.367,25.429 154.367,29.967 C154.367,34.51 150.67,38.211 146.125,38.211"/>
    <path fill="#AC5592" d="M122.104,125 C117.563,125 113.862,121.305 113.862,116.76 C113.862,112.214 117.563,108.518 122.104,108.518 C126.649,108.518 130.338,112.214 130.338,116.76 C130.338,121.305 126.649,125 122.104,125"/>
    <path fill="#AC91B8" d="M75.026,108.518 C70.476,108.518 66.781,112.214 66.781,116.76 C66.781,121.305 70.476,125 75.026,125 C79.569,125 83.268,121.305 83.268,116.76 C83.268,112.214 79.569,108.518 75.026,108.518"/>
    <path fill="#2B999A" d="M170.422,108.518 C165.884,108.518 162.188,112.214 162.188,116.76 C162.188,121.305 165.884,125 170.422,125 C174.965,125 178.667,121.305 178.667,116.76 C178.667,112.214 174.965,108.518 170.422,108.518"/>
    <path fill="#C77B4D" d="M23.328,48.57 C18.79,48.57 15.089,52.277 15.089,56.823 C15.089,61.363 18.79,65.065 23.328,65.065 C27.876,65.065 31.57,61.363 31.57,56.823 C31.57,52.277 27.876,48.57 23.328,48.57"/>
    <path fill="#E7783E" d="M8.242,67.626 C3.705,67.626 0,71.329 0,75.866 C0,80.415 3.705,84.116 8.242,84.116 C12.793,84.116 16.492,80.415 16.492,75.866 C16.492,71.329 12.793,67.626 8.242,67.626"/>
    <path fill="#46BCD1" d="M192.265,95.393 C187.719,95.393 184.022,99.084 184.022,103.637 C184.022,108.18 187.719,111.87 192.265,111.87 C196.813,111.87 200.501,108.18 200.501,103.637 C200.501,99.084 196.813,95.393 192.265,95.393"/>
    <path fill="#F7C05C" d="M23.638,106.511 C19.092,106.511 15.391,110.205 15.391,114.753 C15.391,119.294 19.092,122.988 23.638,122.988 C28.188,122.988 31.874,119.294 31.874,114.753 C31.874,110.205 28.188,106.511 23.638,106.511"/>
    <polygon fill="#723C84" points="137.29 124.94 152.981 124.94 152.981 109.315 137.29 109.315"/>
    <polygon fill="#F3E5B3" points="40.47 124.94 56.149 124.94 56.149 109.315 40.47 109.315"/>
    <polyline fill="#C77B4D" points=".847 99.941 .847 107.782 16.536 99.941 .847 92.1 .847 99.941"/>
    <polyline fill="#27AB71" points="106.392 .815 98.553 .815 106.392 16.507 114.24 .815 106.392 .815"/>
    <polyline fill="#8D3883" points="98.855 124.963 106.691 124.933 98.789 109.277 91.007 125 98.855 124.963"/>
    <polyline fill="#47BCD0" points="204.827 82.48 204.796 74.636 189.138 82.543 204.858 90.318 204.827 82.48"/>
  </g>
</svg>
